<?xml version="1.0" standalone="no"?>
<!DOCTYPE svg PUBLIC "-//W3C//DTD SVG 20010904//EN"
 "http://www.w3.org/TR/2001/REC-SVG-20010904/DTD/svg10.dtd">
<svg version="1.0" xmlns="http://www.w3.org/2000/svg"
 width="113px" height="113px" viewBox="0 0 148.000000 143.000000"
 preserveAspectRatio="xMidYMid meet">
<metadata>
Created by potrace 1.15, written by Peter Selinger 2001-2017
</metadata>
<g transform="translate(0.000000,143.000000) scale(0.100000,-0.100000)"
fill="#006CB4" stroke="none">
<path d="M542 1410 c-251 -66 -453 -263 -521 -510 -29 -103 -29 -267 0 -370
69 -249 271 -445 525 -510 106 -27 282 -27 388 0 254 65 456 261 525 510 29
103 29 267 0 370 -69 249 -271 445 -525 510 -104 27 -289 27 -392 0z m423 -34
c354 -120 563 -478 475 -820 -59 -233 -236 -420 -475 -503 -73 -25 -92 -27
-225 -27 -133 0 -152 2 -225 27 -239 83 -416 270 -475 503 -94 367 155 751
545 840 99 23 282 13 380 -20z"/>
<path d="M594 1346 c-358 -82 -581 -415 -509 -761 47 -225 225 -415 455 -487
108 -33 292 -33 400 0 215 67 383 235 446 447 25 82 25 258 0 340 -32 106 -85
194 -166 276 -129 130 -264 188 -455 195 -72 2 -131 -1 -171 -10z m206 -349
l56 -162 187 -3 c103 -1 187 -6 187 -10 0 -4 -67 -54 -149 -111 l-149 -103 58
-174 c32 -96 53 -171 47 -167 -7 3 -76 51 -154 106 l-143 99 -142 -99 c-79
-55 -148 -103 -155 -106 -6 -4 15 71 47 167 l58 174 -149 103 c-82 57 -149
107 -149 111 0 4 84 9 187 10 l187 3 55 162 c31 90 58 163 61 163 3 0 30 -73
60 -163z"/>
</g>
</svg>
