<?xml version="1.0" standalone="no"?>
<!DOCTYPE svg PUBLIC "-//W3C//DTD SVG 20010904//EN"
 "http://www.w3.org/TR/2001/REC-SVG-20010904/DTD/svg10.dtd">
<svg version="1.0" xmlns="http://www.w3.org/2000/svg"
 width="153.000000pt" height="148.000000pt" viewBox="0 0 153.000000 148.000000"
 preserveAspectRatio="xMidYMid meet">
<metadata>
Created by potrace 1.15, written by Peter Selinger 2001-2017
</metadata>
<g transform="translate(0.000000,148.000000) scale(0.100000,-0.100000)"
fill="#000000" stroke="none">
<path d="M585 1465 c-266 -58 -499 -280 -565 -541 -27 -105 -27 -263 0 -368
67 -263 300 -485 569 -542 85 -18 267 -18 352 0 269 57 502 279 569 542 27
105 27 263 0 368 -67 263 -300 485 -569 542 -82 17 -276 17 -356 -1z m333 -21
c184 -38 366 -157 468 -307 139 -205 162 -468 60 -684 -45 -93 -73 -135 -144
-207 -292 -300 -782 -300 -1074 0 -71 72 -99 114 -144 207 -85 179 -85 395 0
574 45 93 73 135 144 207 177 182 439 262 690 210z"/>
<path d="M648 1400 c-151 -27 -269 -89 -378 -199 -135 -136 -193 -275 -193
-461 0 -186 58 -325 193 -461 94 -94 171 -140 300 -180 107 -34 283 -34 390 0
129 40 206 86 300 180 135 136 193 274 193 461 0 187 -58 325 -193 461 -93 93
-171 140 -295 179 -79 24 -241 34 -317 20z m186 -292 c54 -17 122 -84 136
-137 l11 -40 87 -3 87 -3 0 -280 0 -280 -390 0 -390 0 0 280 0 280 87 3 87 3
11 40 c7 25 28 57 53 83 62 61 135 79 221 54z"/>
<path d="M688 1035 c-26 -15 -68 -72 -68 -94 0 -8 44 -11 145 -11 101 0 145 3
145 11 0 23 -43 80 -70 94 -37 19 -117 19 -152 0z"/>
</g>
</svg>
