<?xml version="1.0" standalone="no"?>
<!DOCTYPE svg PUBLIC "-//W3C//DTD SVG 20010904//EN"
 "http://www.w3.org/TR/2001/REC-SVG-20010904/DTD/svg10.dtd">
<svg version="1.0" xmlns="http://www.w3.org/2000/svg"
 width="148.000000pt" height="143.000000pt" viewBox="0 0 148.000000 143.000000"
 preserveAspectRatio="xMidYMid meet">
<metadata>
Created by potrace 1.15, written by Peter Selinger 2001-2017
</metadata>
<g transform="translate(0.000000,143.000000) scale(0.100000,-0.100000)"
fill="#000000" stroke="none">
<path d="M542 1410 c-251 -66 -453 -263 -521 -510 -29 -103 -29 -267 0 -370
69 -249 271 -445 525 -510 106 -27 282 -27 388 0 254 65 456 261 525 510 29
103 29 267 0 370 -69 249 -271 445 -525 510 -104 27 -289 27 -392 0z m423 -34
c354 -120 563 -478 475 -820 -59 -233 -236 -420 -475 -503 -73 -25 -92 -27
-225 -27 -133 0 -152 2 -225 27 -239 83 -416 270 -475 503 -94 367 155 751
545 840 99 23 282 13 380 -20z"/>
<path d="M594 1346 c-358 -82 -581 -415 -509 -761 47 -225 225 -415 455 -487
108 -33 292 -33 400 0 215 67 383 235 446 447 25 82 25 258 0 340 -32 106 -85
194 -166 276 -129 130 -264 188 -455 195 -72 2 -131 -1 -171 -10z m465 -312
c41 -29 51 -72 51 -219 0 -147 -10 -190 -51 -219 -20 -14 -62 -16 -319 -16
-328 0 -329 0 -356 66 -19 46 -19 292 0 338 27 66 28 66 356 66 257 0 299 -2
319 -16z m81 -576 c19 -35 37 -66 38 -70 2 -5 -195 -8 -438 -8 -243 0 -440 3
-438 8 2 4 19 35 38 70 l35 62 365 0 365 0 35 -62z"/>
<path d="M450 980 c-20 -13 -22 -312 -2 -332 19 -19 565 -19 584 0 20 20 18
319 -2 332 -9 6 -134 10 -290 10 -156 0 -281 -4 -290 -10z"/>
</g>
</svg>
